<?xml version="1.0" ?><!DOCTYPE svg  PUBLIC '-//W3C//DTD SVG 1.1//EN'  'http://www.w3.org/Graphics/SVG/1.1/DTD/svg11.dtd'><svg height="2048px" style="shape-rendering:geometricPrecision; text-rendering:geometricPrecision; image-rendering:optimizeQuality; fill-rule:evenodd; clip-rule:evenodd" viewBox="0 0 2048 2048" width="2048px" xml:space="preserve" xmlns="http://www.w3.org/2000/svg" xmlns:xlink="http://www.w3.org/1999/xlink"><defs><style type="text/css">
   <![CDATA[
    .fil5 {fill:none}
    .fil4 {fill:#46C2B9}
    .fil2 {fill:#6A95C8}
    .fil1 {fill:#E74662}
    .fil3 {fill:#F6D346}
    .fil0 {fill:#333333;fill-rule:nonzero}
   ]]>
  </style></defs><g id="Layer_x0020_1"><path class="fil0" d="M1075.43 1439.29l354.911 -128.003 -0.00944883 -0.0236221 72.6083 -27.4902 0.624804 -0.187795c12.8906,-4.28977 22.089,-8.38938 27.3118,-12.4512 0.581103,-0.452363 1.66417,1.44449 1.85669,1.55669 -0.797245,-1.65236 -2.14843,-3.1878 -4.28622,-4.48937 -3.58229,-2.18032 -8.96812,-3.79725 -16.7693,-4.56378l0 0.00354331 -70.1906 -3.78898 -51.743 12.9413 -81.8457 29.2028 -0.125197 0 -221.718 77.6871 -10.5 -30.1252 221.607 -77.6481 -0.0141732 -0.0389764 82.4257 -29.4095 1.5 -0.437008 54.9367 -13.7398 4.6878 -0.438189 72.6048 3.9189 0.624804 0.0625985c13.4221,1.22126 23.5394,4.49174 31.1445,9.12284 8.89607,5.4189 14.3669,12.5126 17.5417,20.4473l0.312992 0.937796c4.38898,13.1622 0.080315,24.3213 -12.4252,34.0477 -7.91575,6.15709 -20.0929,11.8063 -36.3201,17.2453l0.00708662 0.0188977 -72.6083 27.4902 -0.249213 0.0625985 -355.151 128.089 -10.7504 -30zm0 -233.351c51.215,-18.4276 99.0119,-33.476 147.415,-44.1355 48.6792,-10.7197 98.4414,-17.1461 153.507,-18.3142l0 -0.00944883c43.5284,-2.07874 88.6737,-0.403937 134.594,5.85473 42.8433,5.84056 86.4296,15.6933 130.086,30.2351l0.011811 -0.0377953c40.7351,13.2413 72.6201,27.7299 94.9418,44.0115 24.8292,18.1099 38.3362,38.6776 39.6496,62.3563 2.31614,24.7429 -7.24134,46.6382 -29.2607,66.58 -19.5284,17.6858 -49.3418,33.7949 -89.9741,49.1091l0 0.0011811 -39.241 17.6504 -1.24961 0.500788 -331.609 117.721 -0.0011811 -0.00354331 -187.543 77.139 -12.1252 -29.4992 188.294 -77.4485 0.750001 -0.312992 330.963 -117.491 38.6374 -17.3788 0.999213 -0.375591c37.3524,-14.0067 64.1186,-28.1965 80.7237,-43.2355 14.1201,-12.7866 20.2701,-26.0551 18.8362,-40.3595l-0.0625985 -0.750001c-0.703938,-13.4917 -9.75001,-26.2087 -26.5358,-38.452 -19.3666,-14.1272 -48.3154,-27.1146 -86.067,-39.3863l-0.0625985 -0.0625985c-41.6185,-13.8673 -83.3103,-23.2831 -124.41,-28.8851 -43.9571,-5.99056 -87.1737,-7.59449 -128.844,-5.60434l-0.437008 0c-52.5792,1.0878 -100.488,7.30276 -147.696,17.6977 -47.6138,10.4858 -94.0607,25.0831 -143.538,42.8859l-10.7504 -30zm-233.002 -108.54l-103.995 34.0311 -0.00944883 -0.0271654 -283.52 101.667 0.00472441 0.011811 -7.49882 3.00118 158.232 49.715 226.537 -80.256 10.6252 30.1252 -231.359 81.965 0 0.00354331 -52.9619 19.6347 -0.0129921 -0.034252c-7.01457,2.62677 -13.8024,5.80394 -20.0138,9.02363 -4.69725,2.43425 -8.96457,4.84489 -12.7358,7.05591 0.829134,0.742914 1.96417,1.60394 3.39567,2.57953l72.5044 9.07087 78.6237 -14.9847 151.684 -56.4945 11.126 29.8748 -153.057 57.0059 -2.62559 0.750001 -82.4032 15.7051 -4.87441 0.187795 -78.4926 -9.82087 -6.50079 -2.3126c-10.9795,-6.84567 -18.1217,-14.5039 -21.1028,-23.0209 -3.8941,-11.1248 -1.23662,-21.5764 8.48032,-31.2815l3.0626 -2.3752c5.18977,-3.11693 11.4012,-6.74292 18.2906,-10.3146 7.01103,-3.63425 14.9244,-7.31221 23.5878,-10.552l0.0625985 -0.0625985 9.13938 -3.38859 -155.921 -48.9874c-33.0579,14.2913 -58.2567,28.7835 -75.013,42.8941 -14.8819,12.5315 -22.3016,23.8004 -21.6732,33.2327l-0.0248032 0.0011811c1.6252,16.3571 12.4984,31.0099 32.015,44.2866 22.1977,15.1004 54.9426,28.1044 97.4717,39.4524 65.4934,17.7189 131.478,27.4358 198.065,29.0244 66.6036,1.58977 134.089,-4.94528 202.576,-19.7232l6.74882 31.2496c-70.7304,15.2622 -140.715,22.004 -210.073,20.3492 -69.3733,-1.65591 -137.855,-11.7083 -205.565,-30.026 -45.7725,-12.2138 -81.7123,-26.6823 -107.098,-43.9524 -27.9166,-18.991 -43.5142,-41.4945 -45.9284,-68.1615l-0.0625985 -0.37441c-1.33937,-20.0858 9.97796,-40.3063 33.0496,-59.7343 20.1118,-16.937 49.8874,-33.9307 88.5355,-50.1957l0.255118 -0.0129921 -0.00472441 -0.114567 49.0595 -19.6323 0.562205 -0.187795 284.525 -102.027 0.438189 -0.187795 103.995 -34.0311 9.87402 30.3756zm-318.127 254.332c-0.237402,-0.589371 -0.396851,-0.999213 -0.178347,-0.37441 0.0413386,0.11811 0.100394,0.242126 0.178347,0.37441z"/><path class="fil0" d="M853.486 474.611l0 1032.11 211.314 64.7445 0 -867.297c0,-12.7122 0.576378,-23.5169 2.58307,-32.9859 2.24646,-10.5969 6.23977,-19.2567 12.939,-26.3504 6.97914,-9.44528 14.5087,-15.0307 23.2654,-17.4142 8.92087,-2.42835 17.8902,-1.23071 27.7772,2.85827 20.4496,6.24095 35.5524,18.5032 45.6,36.7772 9.43702,17.1662 14.0126,39.3414 14.0126,66.5481l0 346.895c32.6693,14.4201 63.3331,22.2508 91.0182,22.5343 27.7642,0.283465 52.6748,-7.05945 73.6914,-23.0362l0.562205 -0.437008c23.2099,-16.0677 41.0646,-38.6209 53.1036,-68.119 12.1441,-29.7544 18.4382,-66.6142 18.4382,-111.041 0,-47.7426 -4.70315,-89.5028 -14.5784,-125.013 -9.63426,-34.6441 -24.2197,-63.4441 -44.2052,-86.1568l-0.812599 -1.06299c-18.4606,-24.9284 -43.9926,-47.6374 -77.054,-68.3575 -33.7146,-21.1299 -75.2127,-40.1965 -124.963,-57.4347l-0.00472441 0.0153543c-66.5233,-21.5256 -127.637,-40.1079 -183.082,-55.4965 -47.1355,-13.0831 -90.3839,-23.8937 -129.605,-32.2819zm-32.0008 1043.88l0 -1063.53 0 -19.5154 19.1256 3.82796c44.1355,8.83347 94.5579,21.2079 150.979,36.8693 55.9063,15.5173 117.434,34.2236 184.331,55.8697l0.312992 0.125197c52.1504,18.0484 95.9115,38.1886 131.782,60.6697 36.202,22.6866 64.4115,47.7567 85.1292,75.4536 23.1083,26.3173 39.874,59.2772 50.8158,98.6245 10.7244,38.5595 15.8303,83.1402 15.8303,133.512 0,48.5941 -7.10552,89.452 -20.8146,123.041 -14.4543,35.4142 -36.1784,62.6906 -64.6028,82.3678l-0.00708662 -0.00944883c-26.8099,20.1791 -58.0949,29.4626 -92.6221,29.1095 -35.1366,-0.360236 -73.4457,-10.7339 -113.581,-29.7366l-9.1878 -4.35118 0 -10.0866 0 -357.13c0,-21.841 -3.26929,-38.9091 -10.011,-51.1725 -5.98229,-10.8803 -15.0957,-18.1512 -27.5221,-21.8055l-1.7504 -0.624804c-3.54095,-1.51417 -6.10867,-2.14843 -7.7315,-1.70669 -1.71732,0.466536 -3.77481,2.40945 -6.39213,6.07796l-1.6878 1.99961c-2.53819,2.53937 -4.16693,6.33662 -5.24882,11.439 -1.42323,6.71575 -1.83189,15.5327 -1.83189,26.3599l0 888.868 0 21.5693 -20.6256 -6.3189 -243.314 -74.5501 -11.3752 -3.48544 0 -11.765z"/><path class="fil1" d="M853.486 474.611l0 1032.11 211.314 64.7445 0 -867.297c0,-12.7122 0.576378,-23.5169 2.58307,-32.9859 2.24646,-10.5969 6.23977,-19.2567 12.939,-26.3504 6.97914,-9.44528 14.5087,-15.0307 23.2654,-17.4142 8.92087,-2.42835 17.8902,-1.23071 27.7772,2.85827 20.4496,6.24095 35.5524,18.5032 45.6,36.7772 9.43702,17.1662 14.0126,39.3414 14.0126,66.5481l0 346.895c32.6693,14.4201 63.3331,22.2508 91.0182,22.5343 27.7642,0.283465 52.6748,-7.05945 73.6914,-23.0362l0.562205 -0.437008c23.2099,-16.0677 41.0646,-38.6209 53.1036,-68.119 12.1441,-29.7544 18.4382,-66.6142 18.4382,-111.041 0,-47.7426 -4.70315,-89.5028 -14.5784,-125.013 -9.63426,-34.6441 -24.2197,-63.4441 -44.2052,-86.1568l-0.812599 -1.06299c-18.4606,-24.9284 -43.9926,-47.6374 -77.054,-68.3575 -33.7146,-21.1299 -75.2127,-40.1965 -124.963,-57.4347l-0.00472441 0.0153543c-66.5233,-21.5256 -127.637,-40.1079 -183.082,-55.4965 -47.1355,-13.0831 -90.3839,-23.8937 -129.605,-32.2819z"/><path class="fil2" d="M1377.41 1175.35c-52.5792,1.0878 -100.488,7.30276 -147.696,17.6977 -44.191,9.73229 -87.3768,23.0055 -132.913,39.0969l0 109.962 200.356 -70.2024 -0.0141732 -0.0389764 82.4257 -29.4095 1.5 -0.437008 54.9367 -13.7398 4.6878 -0.438189 72.6048 3.9189 0.624804 0.0625985c13.4221,1.22126 23.5394,4.49174 31.1445,9.12284 8.89607,5.4189 14.3669,12.5126 17.5417,20.4473l0.312992 0.937796c4.38898,13.1622 0.080315,24.3213 -12.4252,34.0477 -7.91575,6.15709 -20.0929,11.8063 -36.3201,17.2453l0.00708662 0.0188977 -72.6083 27.4902 -0.249213 0.0625985 -344.525 124.257 0 114.633 176.119 -72.4406 0.750001 -0.312992 330.963 -117.491 38.6374 -17.3788 0.999213 -0.375591c37.3524,-14.0067 64.1186,-28.1965 80.7237,-43.2355 14.1201,-12.7866 20.2701,-26.0551 18.8362,-40.3595l-0.0625985 -0.750001c-0.703938,-13.4917 -9.75001,-26.2087 -26.5358,-38.452 -19.3666,-14.1272 -48.3154,-27.1146 -86.067,-39.3863l-0.0625985 -0.0625985c-41.6185,-13.8673 -83.3103,-23.2831 -124.41,-28.8851 -43.9571,-5.99056 -87.1737,-7.59449 -128.844,-5.60434l-0.437008 0z"/><path class="fil3" d="M547.477 1307.27l9.13938 -3.38859 -155.921 -48.9874c-33.0579,14.2913 -58.2567,28.7835 -75.013,42.8941 -14.8819,12.5315 -22.3016,23.8004 -21.6732,33.2327l-0.0248032 0.0011811c1.6252,16.3571 12.4984,31.0099 32.015,44.2866 22.1977,15.1004 54.9426,28.1044 97.4717,39.4524 65.4934,17.7189 131.478,27.4358 198.065,29.0244 62.5075,1.49173 125.791,-4.17166 189.95,-17.0894l0 -95.3032 -131.493 48.9744 -2.62559 0.750001 -82.4032 15.7051 -4.87441 0.187795 -78.4926 -9.82087 -6.50079 -2.3126c-10.9795,-6.84567 -18.1217,-14.5039 -21.1028,-23.0209 -3.8941,-11.1248 -1.23662,-21.5764 8.48032,-31.2815l3.0626 -2.3752c5.18977,-3.11693 11.4012,-6.74292 18.2906,-10.3146 7.01103,-3.63425 14.9244,-7.31221 23.5878,-10.552l0.0625985 -0.0625985z"/><path class="fil4" d="M454.898 1233.07l0 0zm-7.4941 3.01299l158.232 49.715 215.849 -76.4694 0 -105.078 -83.0575 27.1795 -0.00944883 -0.0271654 -283.516 101.679 -7.49882 3.00118z"/></g><rect class="fil5" height="2048" width="2048"/></svg>